<?xml version="1.0" encoding="UTF-8" standalone="no"?><!DOCTYPE svg PUBLIC "-//W3C//DTD SVG 1.1//EN" "http://www.w3.org/Graphics/SVG/1.1/DTD/svg11.dtd"><svg width="100%" height="100%" viewBox="0 0 2179 2698" version="1.1" xmlns="http://www.w3.org/2000/svg" xmlns:xlink="http://www.w3.org/1999/xlink" xml:space="preserve" xmlns:serif="http://www.serif.com/" style="fill-rule:evenodd;clip-rule:evenodd;stroke-linecap:round;stroke-linejoin:round;"><g id="Logo-branca" serif:id="Logo branca"></g><rect id="Logo-PNG-Preta" serif:id="Logo PNG Preta" x="-0" y="0" width="2178.948" height="2697.656" style="fill:none;"/><g><g><path d="M1431.364,673.898c-236.427,-165.677 -620.238,-104.452 -794.386,144.293c-215.195,307.374 -109.678,650.466 80.625,818.5c180.181,159.095 482.664,215.644 724.788,63.247" style="fill:none;stroke:#010c20;stroke-width:86.74px;"/><path d="M802.621,1695.817l564.117,-812.093" style="fill:none;stroke:#010c20;stroke-width:84.44px;"/><path d="M1461.997,903.802l2.095,69.656l-0.141,560.024" style="fill:none;stroke:#010c20;stroke-width:84.54px;"/><rect x="1383.061" y="878.933" width="50.488" height="21.821" style="fill:none;stroke:#010c20;stroke-width:41.67px;stroke-miterlimit:1.5;"/><path d="M1354.134,866.19c2.422,-2.052 26.239,-20.647 73.512,-14.561c5.527,0.712 9.746,1.219 12.591,2.174c9.42,3.16 20.595,9.767 28.429,18.672c11.637,13.228 17.571,29.338 12.936,29.044c-6.231,-0.394 -1.941,-2.099 -54.665,-18.6c-25.718,-8.049 -38.072,-1.688 -62.17,-10.169c-12.982,-4.569 -11.286,-6.006 -10.633,-6.56Z" style="fill:none;stroke:#010c20;stroke-width:41.67px;stroke-miterlimit:1.5;"/><path d="M1624.606,874.719c0,0 -0.054,-5.952 -0,0c0.287,31.495 1.219,137.307 1.587,222.084c0.452,104.294 0.975,224.013 1.232,279.42c0.276,59.38 0.684,157.453 0.684,157.453" style="fill:none;stroke:#010c20;stroke-width:79.17px;"/></g><g><path d="M684.95,2150.635c-6.186,3.853 -13.613,5.78 -22.283,5.78c-7.555,0 -14.26,-1.775 -20.116,-5.324c-5.856,-3.549 -10.369,-8.569 -13.537,-15.058c-3.169,-6.49 -4.753,-13.918 -4.753,-22.283c0,-8.721 1.8,-16.579 5.4,-23.576c3.6,-6.997 8.619,-12.409 15.058,-16.237c6.439,-3.828 13.715,-5.742 21.827,-5.742c6.591,0 12.853,1.318 18.785,3.955l0,8.746c-6.084,-3.701 -12.701,-5.552 -19.85,-5.552c-6.338,0 -12.042,1.597 -17.112,4.791c-5.07,3.194 -8.987,7.694 -11.75,13.499c-2.763,5.805 -4.145,12.359 -4.145,19.66c0,10.85 2.789,19.558 8.366,26.124c5.577,6.566 12.98,9.849 22.207,9.849c8.416,0 15.718,-2.256 21.903,-6.769l0,8.138Z" style="fill:#010c20;"/><path d="M791.272,2078.461c-2.535,-1.825 -5.526,-2.738 -8.974,-2.738c-6.946,0 -12.549,3.549 -16.808,10.647c-4.259,7.098 -6.388,16.529 -6.388,28.292l0,39.699l-7.757,0l0,-84.114l7.757,0l0,18.557l0.304,0c1.876,-6.287 4.893,-11.23 9.05,-14.83c4.158,-3.6 8.974,-5.4 14.45,-5.4c3.093,0 5.881,0.507 8.366,1.521l0,8.366Z" style="fill:#010c20;"/><path d="M903.297,2154.362l0,-16.656l-0.304,0c-2.839,5.831 -6.794,10.407 -11.864,13.727c-5.07,3.321 -10.647,4.981 -16.732,4.981c-7.859,0 -14.171,-2.218 -18.937,-6.655c-4.766,-4.436 -7.149,-10.128 -7.149,-17.074c0,-14.906 9.709,-23.804 29.128,-26.694l25.858,-3.879c0,-17.847 -6.743,-26.771 -20.23,-26.771c-9.278,0 -18.303,3.701 -27.075,11.104l0,-9.354c3.549,-2.738 7.846,-4.905 12.891,-6.502c5.045,-1.597 10.026,-2.396 14.944,-2.396c8.822,0 15.591,2.675 20.306,8.024c4.715,5.349 7.073,13.17 7.073,23.462l0,54.682l-7.909,0Zm-46.696,-22.131c0,5.121 1.699,9.24 5.096,12.359c3.397,3.118 7.935,4.677 13.613,4.677c5.222,0 9.976,-1.356 14.26,-4.069c4.284,-2.713 7.643,-6.515 10.077,-11.408c2.434,-4.893 3.651,-10.33 3.651,-16.313l0,-8.214l-22.968,3.27c-8.67,1.217 -14.792,3.346 -18.367,6.388c-3.574,3.042 -5.362,7.479 -5.362,13.309Z" style="fill:#010c20;"/><path d="M978.209,2141.281c2.789,2.383 6.224,4.31 10.305,5.78c4.081,1.47 7.643,2.206 10.685,2.206c13.081,0 19.622,-5.298 19.622,-15.895c0,-3.549 -1.306,-6.604 -3.917,-9.164c-2.611,-2.56 -7.466,-5.387 -14.564,-8.48c-7.808,-3.346 -13.411,-6.883 -16.808,-10.609c-3.397,-3.727 -5.096,-8.378 -5.096,-13.956c0,-6.743 2.636,-12.257 7.909,-16.541c5.273,-4.284 11.814,-6.426 19.622,-6.426c7.098,0 13.284,1.47 18.557,4.411l0,8.822c-6.287,-4.056 -12.777,-6.084 -19.469,-6.084c-5.374,0 -9.785,1.407 -13.233,4.221c-3.448,2.814 -5.172,6.528 -5.172,11.142c0,3.144 0.52,5.628 1.559,7.453c1.039,1.825 2.763,3.549 5.172,5.172c2.408,1.622 5.945,3.473 10.609,5.552c6.135,2.687 10.837,5.184 14.108,7.491c3.27,2.307 5.577,4.741 6.921,7.301c1.344,2.56 2.015,5.742 2.015,9.545c0,6.946 -2.598,12.549 -7.795,16.808c-5.197,4.259 -12.08,6.388 -20.648,6.388c-8.112,0 -14.906,-1.927 -20.382,-5.78l0,-9.354Z" style="fill:#010c20;"/><path d="M1127.957,2153.221c-3.904,1.876 -7.631,2.814 -11.18,2.814c-12.523,0 -18.785,-7.479 -18.785,-22.436l0,-56.203l-15.134,0l0,-7.149l15.134,0l0,-21.751l7.757,-2.662l0,24.413l22.207,0l0,7.149l-22.207,0l0,55.138c0,5.78 0.913,9.963 2.738,12.549c1.825,2.586 4.969,3.879 9.431,3.879c3.093,0 6.439,-1.014 10.039,-3.042l0,7.301Z" style="fill:#010c20;"/><path d="M1224.619,2156.415c-7.909,0 -14.906,-1.825 -20.991,-5.476c-6.084,-3.651 -10.761,-8.771 -14.032,-15.363c-3.27,-6.591 -4.905,-14.171 -4.905,-22.74c0,-9.025 1.66,-16.922 4.981,-23.69c3.321,-6.769 8.087,-11.953 14.298,-15.553c6.211,-3.6 13.423,-5.4 21.637,-5.4c12.016,0 21.498,3.942 28.444,11.826c6.946,7.884 10.419,18.696 10.419,32.436c0,8.619 -1.635,16.288 -4.905,23.006c-3.27,6.718 -7.922,11.89 -13.956,15.515c-6.034,3.625 -13.03,5.438 -20.991,5.438Zm0.608,-81.072c-10.039,0 -17.936,3.41 -23.69,10.229c-5.755,6.819 -8.632,15.958 -8.632,27.417c0,11.002 2.865,19.799 8.594,26.39c5.729,6.591 13.512,9.887 23.348,9.887c10.039,0 17.796,-3.245 23.272,-9.735c5.476,-6.49 8.214,-15.565 8.214,-27.227c0,-11.966 -2.687,-21.117 -8.062,-27.455c-5.374,-6.338 -13.056,-9.507 -23.044,-9.507Z" style="fill:#010c20;"/><path d="M1336.721,2155.807c-1.927,0 -3.524,-0.659 -4.791,-1.977c-1.268,-1.318 -1.901,-2.89 -1.901,-4.715c0,-1.977 0.634,-3.6 1.901,-4.867c1.268,-1.268 2.865,-1.901 4.791,-1.901c1.876,0 3.486,0.634 4.829,1.901c1.344,1.268 2.015,2.89 2.015,4.867c0,1.876 -0.697,3.46 -2.091,4.753c-1.394,1.293 -2.979,1.939 -4.753,1.939Z" style="fill:#010c20;"/><path d="M1465.098,2154.362l0,-16.656l-0.304,0c-2.839,5.831 -6.794,10.407 -11.864,13.727c-5.07,3.321 -10.647,4.981 -16.732,4.981c-7.859,0 -14.171,-2.218 -18.937,-6.655c-4.766,-4.436 -7.149,-10.128 -7.149,-17.074c0,-14.906 9.709,-23.804 29.128,-26.694l25.858,-3.879c0,-17.847 -6.743,-26.771 -20.23,-26.771c-9.278,0 -18.303,3.701 -27.075,11.104l0,-9.354c3.549,-2.738 7.846,-4.905 12.891,-6.502c5.045,-1.597 10.026,-2.396 14.944,-2.396c8.822,0 15.591,2.675 20.306,8.024c4.715,5.349 7.073,13.17 7.073,23.462l0,54.682l-7.909,0Zm-46.696,-22.131c0,5.121 1.699,9.24 5.096,12.359c3.397,3.118 7.935,4.677 13.613,4.677c5.222,0 9.976,-1.356 14.26,-4.069c4.284,-2.713 7.643,-6.515 10.077,-11.408c2.434,-4.893 3.651,-10.33 3.651,-16.313l0,-8.214l-22.968,3.27c-8.67,1.217 -14.792,3.346 -18.367,6.388c-3.574,3.042 -5.362,7.479 -5.362,13.309Z" style="fill:#010c20;"/><path d="M1548.223,2049.029c-1.673,0 -3.156,-0.608 -4.449,-1.825c-1.293,-1.217 -1.939,-2.789 -1.939,-4.715c0,-1.724 0.634,-3.182 1.901,-4.373c1.268,-1.191 2.763,-1.787 4.487,-1.787c1.724,0 3.232,0.558 4.525,1.673c1.293,1.115 1.939,2.611 1.939,4.487c0,1.825 -0.634,3.372 -1.901,4.639c-1.268,1.268 -2.789,1.901 -4.563,1.901Zm-3.879,105.333l0,-84.114l7.909,0l0,84.114l-7.909,0Z" style="fill:#010c20;"/></g></g><g id="Logo-preta" serif:id="Logo preta"></g></svg>