<?xml version="1.0" encoding="UTF-8" standalone="no"?><!DOCTYPE svg PUBLIC "-//W3C//DTD SVG 1.1//EN" "http://www.w3.org/Graphics/SVG/1.1/DTD/svg11.dtd"><svg width="100%" height="100%" viewBox="0 0 2179 2698" version="1.1" xmlns="http://www.w3.org/2000/svg" xmlns:xlink="http://www.w3.org/1999/xlink" xml:space="preserve" xmlns:serif="http://www.serif.com/" style="fill-rule:evenodd;clip-rule:evenodd;stroke-linecap:round;stroke-linejoin:round;"><rect id="Logo-PNG-BRanca" serif:id="Logo PNG BRanca" x="0" y="0" width="2178.948" height="2697.656" style="fill:none;"/><g><path d="M1431.364,673.898c-236.427,-165.677 -620.238,-104.452 -794.386,144.293c-215.195,307.374 -109.678,650.466 80.625,818.5c180.181,159.095 482.664,215.644 724.788,63.247" style="fill:none;fill-rule:nonzero;stroke:#fff;stroke-width:86.74px;"/><path d="M802.621,1695.817l564.117,-812.093" style="fill:none;fill-rule:nonzero;stroke:#fff;stroke-width:84.44px;"/><path d="M1461.997,903.802l2.095,69.656l-0.141,560.024" style="fill:none;fill-rule:nonzero;stroke:#fff;stroke-width:84.54px;"/><rect x="1383.061" y="878.933" width="50.488" height="21.821" style="fill:none;stroke:#fff;stroke-width:41.67px;stroke-miterlimit:1.5;"/><path d="M1354.134,866.19c2.422,-2.052 26.239,-20.647 73.512,-14.561c5.527,0.712 9.746,1.219 12.591,2.174c9.42,3.16 20.595,9.767 28.429,18.672c11.637,13.228 17.571,29.338 12.936,29.044c-6.231,-0.394 -1.941,-2.099 -54.665,-18.6c-25.718,-8.049 -38.072,-1.688 -62.17,-10.169c-12.982,-4.569 -11.286,-6.006 -10.633,-6.56Z" style="fill:none;stroke:#fff;stroke-width:41.67px;stroke-miterlimit:1.5;"/><path d="M1624.606,874.719c0,0 -0.054,-5.952 -0,0c0.287,31.495 1.219,137.307 1.587,222.084c0.452,104.294 0.975,224.013 1.232,279.42c0.276,59.38 0.684,157.453 0.684,157.453" style="fill:none;fill-rule:nonzero;stroke:#fff;stroke-width:79.17px;"/></g><g transform="matrix(155.75575,0,0,155.75575,1565.715435,2154.361701)"></g><text x="616.883px" y="2154.362px" style="font-family:'MicrosoftJhengHeiLight', 'Microsoft JhengHei', sans-serif;font-weight:290;font-size:155.756px;fill:#fff;">c r a s t o . a i</text><g id="Logo-branca" serif:id="Logo branca"></g><g id="Logo-preta" serif:id="Logo preta"></g></svg>